<?xml version="1.0" standalone="no"?>
<!DOCTYPE svg PUBLIC "-//W3C//DTD SVG 1.1//EN" "http://www.w3.org/Graphics/SVG/1.1/DTD/svg11.dtd" >
<svg viewBox="0 -64 512 512">
  <g transform="matrix(1 0 0 -1 0 448)">
   <path fill="currentColor"
d="M408 148.3q23 0 39.25 -16.25t16.25 -39.25q0 -20.5 -13.5 -36q-2.5 -3 -6.25 -3.25t-6.75 2.25t-3.25 6.25t2.25 6.75q8.5 10.5 8.5 24q0 15 -10.75 25.75t-25.75 10.75t-25.75 -10.75t-10.75 -25.75t10.75 -25.75t25.75 -10.75q4 0 6.75 -2.75t2.75 -6.75t-2.75 -6.75
t-6.75 -2.75q-23 0 -39.25 16.25t-16.25 39.25t16.25 39.25t39.25 16.25zM496.25 146.05q2.75 -2.75 2.75 -6.75t-3 -7l-132 -132q-2.5 -2.5 -6.75 -2.5q-3.75 0 -6.5 2.75t-2.75 6.75t2.5 6.5l132 132q3 3 7 3t6.75 -2.75zM502.75 104.943q2.75 -2.75 6.25 -6.75t0.5 -7
l-119 -119q-2.5 -2.5 -6.75 -2.5q-3.75 0 -6.5 2.75t-2.75 6.75t2.5 6.5l119 119q3 3 3.5 3t3.25 -2.75zM466.375 170.05q2.75 -2.75 2.75 -6.75t-3 -7l-122.5 -122.5q-2.5 -2.5 -6.75 -2.5l-6.5 2.75l-2.75 6.75q0 4 2.5 6.5l122.5 122.5q3 3 7 3t6.75 -2.75z
M430.5 189.193q2.75 -2.75 2.75 -6.75t-3 -7l-106.5 -106.5q-2.5 -2.5 -6.75 -2.5q-3.75 0 -6.5 2.75t-2.75 6.75t2.5 6.5l106.5 106.5q3 3 7 3t6.75 -2.75zM480.5 168.8q31.5 -31 31.5 -75q0 -10 -2 -19.5q0 -1 -0.5 -3.5q-2.5 -10.5 -7 -20.5q-23 -54.5 -83 -104.5
q-5 -4 -11.5 -4t-11 4q-60.5 50 -83.5 104.5q-4.5 9.5 -7 20.5q-0.5 2.5 -0.5 3.5q-3 14.5 -1.5 29.5q3.5 39 32.25 65.75t67.75 28.25q44 1.5 76 -29zM491.5 77.7998q2 7.5 2 16q0 36 -26.25 61.25t-62.25 24.25q-32 -1.5 -55.5 -23.5t-26.5 -53.5q-1 -12.5 1.5 -24.5v-0.5
q0 -0.5 0.5 -2.5q2 -8.5 5.5 -17q21.5 -50 77.5 -97q56 47 77.5 97q3.5 8.5 5.5 17q0.5 2 0.5 2.5v0.5zM107 397.3q23 0 39.25 -16.25t16.25 -39.25q0 -20.5 -13.5 -36q-2.5 -3 -6.25 -3.25t-6.75 2.25t-3.25 6.25t2.25 6.75q8.5 10.5 8.5 24q0 15 -10.75 25.75
t-25.75 10.75t-25.75 -10.75t-10.75 -25.75t10.75 -25.75t25.75 -10.75q4 0 6.75 -2.75t2.75 -6.75t-2.75 -6.75t-6.75 -2.75q-23 0 -39.25 16.25t-16.25 39.25t16.25 39.25t39.25 16.25zM195.25 395.05q2.75 -2.75 2.75 -6.75t-3 -7l-132 -132q-2.5 -2.5 -6.75 -2.5
q-3.75 0 -6.5 2.75t-2.75 6.75t2.5 6.5l132 132q3 3 7 3t6.75 -2.75zM201.75 353.943q2.75 -2.75 6.25 -6.75t0.5 -7l-119 -119q-2.5 -2.5 -6.75 -2.5q-3.75 0 -6.5 2.75t-2.75 6.75t2.5 6.5l119 119q3 3 3.5 3t3.25 -2.75zM165.375 419.05q2.75 -2.75 2.75 -6.75t-3 -7
l-122.5 -122.5q-2.5 -2.5 -6.75 -2.5l-6.5 2.75l-2.75 6.75q0 4 2.5 6.5l122.5 122.5q3 3 7 3t6.75 -2.75zM129.5 438.193q2.75 -2.75 2.75 -6.75t-3 -7l-106.5 -106.5q-2.5 -2.5 -6.75 -2.5q-3.75 0 -6.5 2.75t-2.75 6.75t2.5 6.5l106.5 106.5q3 3 7 3t6.75 -2.75z
M179.5 417.8q38.833 -38.2158 31.5 -75q-2 -10.0322 -2 -19.5q0 -1 -0.5 -3.5q-2.5 -10.5 -7 -20.5q-24.2744 -57.5195 -83 -104.5q-5 -4 -11.5 -4t-11 4q-55.873 46.1758 -83.5 104.5q-4.5 9.5 -7 20.5q-0.5 2.5 -0.5 3.5q-3 14.5 -1.5 29.5q3.5 39 32.25 65.75
t67.75 28.25q44 1.5 76 -29zM190.5 326.8q2 7.5 2 16q0 36 -26.25 61.25t-62.25 24.25q-32 -1.5 -55.5 -23.5t-26.5 -53.5q-1 -12.5 1.5 -24.5v-0.5q0 -0.5 0.5 -2.5q2 -8.5 5.5 -17q21.5 -50 77.5 -97q56 47 77.5 97q3.5 8.5 5.5 17q0.5 2 0.5 2.5v0.5zM506.5 301.5
q5.5 -5.5 5.5 -13.5t-6 -13l-37 -38q-6 -6 -13.5 -6t-13.5 6l-38 38q-5 5 -5 13t5.5 13.5t13 5.5t13.5 -6l6 -5v48q0 27 -19.5 46.5t-47.5 19.5h-45q-7 0 -12.5 5.5t-5.5 13.5t5.5 13.5t12.5 5.5h45q43 0 73.5 -30.5t30.5 -73.5v-48l6 5q5 6 13 6t13.5 -5.5zM187 -26
q7 0 12.5 -5.5t5.5 -13.5t-5.5 -13.5t-12.5 -5.5h-45q-43 0 -73.5 30.5t-30.5 73.5v48l-6 -5q-5 -6 -13 -6t-13.5 5.5t-5.5 13.5t5 13l38 38q6 6 13.5 6t13.5 -6l38 -38q5 -5 5 -13t-5.5 -13.5t-13 -5.5t-13.5 6l-6 5v-48q0 -27 19.5 -46.5t47.5 -19.5h45z" />
  </g>

</svg>
