<?xml version="1.0" encoding="UTF-8" standalone="no"?>
<svg
   xmlns:dc="http://purl.org/dc/elements/1.1/"
   xmlns:cc="http://creativecommons.org/ns#"
   xmlns:rdf="http://www.w3.org/1999/02/22-rdf-syntax-ns#"
   xmlns:svg="http://www.w3.org/2000/svg"
   xmlns="http://www.w3.org/2000/svg"
   height="512.14062"
   width="416"
   version="1.1"
   id="svg2"
   viewBox="0 -64 416 512.14062">
  <metadata
     id="metadata12">
    <rdf:RDF>
      <cc:Work
         rdf:about="">
        <dc:format>image/svg+xml</dc:format>
        <dc:type
           rdf:resource="http://purl.org/dc/dcmitype/StillImage" />
        <dc:title></dc:title>
      </cc:Work>
    </rdf:RDF>
  </metadata>
  <defs
     id="defs10" />
  <path
     id="path4144"
     d="m 10.847458,166.10673 c 23.864406,145.35593 206.101692,271.18644 206.101692,271.18644 0,0 183.50759,-162.11082 190.91526,-264.67797 0,0 8.0441,-232.39833 -195.25424,-223.457624 C -2.2330288,-41.393996 10.847458,166.10673 10.847458,166.10673 Z"
     style="fill:#fdbe00;fill-opacity:1;fill-rule:evenodd;stroke:#000000;stroke-width:1px;stroke-linecap:butt;stroke-linejoin:miter;stroke-opacity:1" />
  <g
     style="fill:#000000;fill-opacity:1"
     id="g4"
     transform="matrix(1,0,0,-1,-48,384.14062)">
    <path
       style="fill:#000000;fill-opacity:1"
       id="path6"
       d="m 342.26,315.355 q 13.7695,0 23.7861,-10.0137 10.0137,-10.0156 10.0137,-23.7852 l 0,-99.4512 q 0,-14.6709 -10.2393,-24.9102 -10.2393,-10.2402 -24.9111,-10.2402 l -170.1,0 q -14.6719,0 -24.9111,10.2402 -10.2393,10.2393 -10.2393,24.9102 l 0,99.4512 q 0,13.7695 10.0146,23.7861 10.0156,10.0127 23.7852,10.0127 l 30.3496,0 q 4.21289,12.7637 14.2383,20.7393 11.2656,8.96191 25.6123,8.96191 l 32.4004,0 q 5.6709,0 9.61035,-3.94043 3.93945,-3.93848 3.93945,-9.61035 0,-5.66992 -3.93945,-9.61035 -3.93945,-3.94043 -9.61035,-3.94043 l -32.4004,0 q -5.08301,0 -9.14941,-3.04883 -3.87207,-2.9043 -4.8584,-7.83398 l -1.83398,-8.25293 q -2.81641,-10.5635 -13.4072,-10.5635 l -40.9512,0 q -2.87891,0 -4.78906,-1.91113 -1.91016,-1.90918 -1.91016,-4.78809 l 0,-99.4512 q 0,-3.3291 2.35938,-5.68848 2.36133,-2.36035 5.69043,-2.36035 l 170.1,0 q 3.3291,0 5.68945,2.35938 2.36035,2.36035 2.36035,5.68945 l 0,99.4512 q 0,2.87891 -1.91016,4.78809 -1.91016,1.91113 -4.78906,1.91113 l -40.9512,0 q -5.67188,0 -9.60938,3.93945 -3.93945,3.93945 -3.93945,9.61133 0,5.6709 3.93945,9.60938 3.93848,3.93945 9.60938,3.93945 l 40.9512,0 z m -44.776,-65.699 q 5.44629,0 9.38477,-3.93945 3.94043,-3.94043 3.94043,-9.61133 0,-22.7471 -16.0635,-39.0576 -16.0938,-16.3428 -38.8867,-16.3428 -22.7929,0 -38.8867,16.3428 -16.0635,16.3105 -16.0635,39.0576 0,22.7725 16.0898,38.8604 16.0898,16.0898 38.8604,16.0898 5.67188,0 9.60938,-3.93848 3.94043,-3.93945 3.94043,-9.61133 0,-5.6709 -3.93945,-9.60938 -3.93848,-3.94141 -9.61035,-3.94141 -11.4629,0 -19.9053,-8.25 -8.39551,-8.2041 -8.39551,-19.8242 0,-11.6201 8.39551,-19.8242 8.44238,-8.25 19.9053,-8.25 11.46292,0 19.9053,8.25 8.39551,8.2041 8.39551,20.0488 0,5.6709 3.93848,9.61133 3.93945,3.93945 9.38574,3.93945 z M 401,390 q 63,-62 63,-150 0,-20 -4,-39 0,-2 -1,-7 -5,-21 -14,-41 -46,-109 -166,-209 -10,-8 -23,-8 -13,0 -22,8 -121,100 -167,209 -9,19 -14,41 -1,5 -1,7 -6,29 -3,59 7,78 64.5,131.5 Q 171,445 249,448 q 88,3 152,-58 z m 22,-182 q 4,15 4,32 0,72 -52.5,122.5 Q 322,413 250,411 186,408 139,364 92,320 86,257 84,232 89,208 l 0,-1 q 0,-1 1,-5 4,-17 11,-34 43,-100 155,-194 112,94 155,194 7,17 11,34 1,4 1,5 l 0,1 z" />
  </g>
</svg>
